<svg width="643" height="210" viewBox="0 0 643 210" fill="none" xmlns="http://www.w3.org/2000/svg">
<path d="M78.624 49.368C80.8427 49.368 83.1467 49.8373 85.536 50.776C87.9253 51.7147 90.2293 52.9093 92.448 54.36H92.32C94.5387 55.9813 96.2453 58.1147 97.44 60.76C98.6347 63.32 99.232 66.3067 99.232 69.72V130.52C99.232 137.432 96.928 142.595 92.32 146.008C90.1013 147.629 87.7973 148.909 85.408 149.848C83.104 150.701 80.8427 151.128 78.624 151.128H50.72C48.5013 151.128 46.1973 150.701 43.808 149.848C41.504 148.909 39.2427 147.629 37.024 146.008C34.8053 144.301 33.0987 142.211 31.904 139.736C30.7093 137.176 30.112 134.104 30.112 130.52V69.72C30.112 66.3067 30.7093 63.32 31.904 60.76C33.0987 58.1147 34.8053 55.9813 37.024 54.36H36.896C39.1147 52.9093 41.4187 51.7147 43.808 50.776C46.1973 49.8373 48.5013 49.368 50.72 49.368H78.624ZM75.424 138.2C78.5813 138.2 80.8 137.304 82.08 135.512C83.36 133.72 84 131.715 84 129.496V70.872C84 68.7387 83.36 66.776 82.08 64.984C80.8 63.192 78.5813 62.296 75.424 62.296H53.92C50.7627 62.296 48.544 63.192 47.264 64.984C45.984 66.776 45.344 68.7387 45.344 70.872V129.496C45.344 131.715 45.984 133.72 47.264 135.512C48.544 137.304 50.7627 138.2 53.92 138.2H75.424ZM159.063 106.2C161.196 106.2 163.458 106.712 165.847 107.736C168.322 108.675 170.626 109.869 172.759 111.32H172.631C174.85 112.941 176.556 115.032 177.751 117.592C178.946 120.152 179.543 123.224 179.543 126.808V130.648C179.543 137.645 177.239 142.808 172.631 146.136C170.412 147.843 168.151 149.08 165.847 149.848C163.543 150.616 161.282 151 159.063 151H137.303C135.084 151 132.823 150.616 130.519 149.848C128.215 149.08 125.954 147.843 123.735 146.136C119.127 142.893 116.823 137.731 116.823 130.648V129.112C116.823 125.443 119.17 123.651 123.863 123.736C128.642 123.736 131.031 125.528 131.031 129.112V130.52C131.031 132.568 131.671 134.488 132.951 136.28C134.231 138.072 136.492 138.968 139.735 138.968H156.631C159.874 138.968 162.135 138.072 163.415 136.28C164.695 134.488 165.335 132.568 165.335 130.52V126.936C165.335 125.827 165.164 124.76 164.823 123.736C164.567 122.712 164.098 121.816 163.415 121.048C162.732 120.195 161.836 119.512 160.727 119C159.618 118.488 158.252 118.232 156.631 118.232H137.943C133.591 118.232 129.026 116.696 124.247 113.624C119.724 110.723 117.463 105.731 117.463 98.648V94.296C117.463 90.8827 118.06 87.896 119.255 85.336C120.45 82.6907 122.156 80.5573 124.375 78.936H124.247C126.38 77.4853 128.642 76.2907 131.031 75.352C133.42 74.4133 135.724 73.944 137.943 73.944H158.423C160.642 73.944 162.903 74.4133 165.207 75.352C167.596 76.2907 169.9 77.4853 172.119 78.936H171.991C174.21 80.5573 175.916 82.6907 177.111 85.336C178.306 87.896 178.903 90.8827 178.903 94.296V95.448C178.903 97.24 178.306 98.5627 177.111 99.416C175.916 100.184 174.167 100.611 171.863 100.696C167.17 100.781 164.823 99.032 164.823 95.448V94.424C164.823 92.2907 164.14 90.3707 162.775 88.664C161.495 86.872 159.276 85.976 156.119 85.976H140.247C137.09 85.976 134.828 86.872 133.463 88.664C132.183 90.3707 131.543 92.2907 131.543 94.424V97.496C131.543 99.7147 132.183 101.72 133.463 103.512C134.828 105.304 137.09 106.2 140.247 106.2H159.063ZM210.293 145.624C210.293 149.72 207.946 151.768 203.253 151.768C198.56 151.768 196.213 149.72 196.213 145.624V54.744C196.213 50.648 198.56 48.6 203.253 48.6C207.946 48.6 210.293 50.648 210.293 54.744V73.944H237.301C241.653 73.944 246.176 75.5653 250.869 78.808C255.477 82.0507 257.781 87.1707 257.781 94.168V145.624C257.781 149.72 255.434 151.768 250.741 151.768C246.048 151.768 243.701 149.72 243.701 145.624V95.32C243.701 93.1013 243.018 90.968 241.653 88.92L241.781 89.048C240.672 87 238.41 85.976 234.997 85.976H210.293V145.624ZM294.041 151C291.396 151 288.878 150.659 286.489 149.976C284.1 149.208 281.796 148.141 279.577 146.776V146.904C275.396 144.259 273.305 139.395 273.305 132.312V126.04C273.305 122.541 273.902 119.512 275.097 116.952C276.377 114.307 278.126 112.216 280.345 110.68H280.217C282.35 109.229 284.612 108.163 287.001 107.48C289.39 106.712 291.694 106.328 293.913 106.328H322.201V94.424C322.201 92.2907 321.518 90.3707 320.153 88.664C318.873 86.872 316.654 85.976 313.497 85.976H298.521C295.278 85.976 293.017 86.7867 291.737 88.408C290.542 89.944 289.945 91.7787 289.945 93.912V94.936C289.945 99.3733 287.556 101.592 282.777 101.592C277.998 101.592 275.609 99.3733 275.609 94.936V93.784C275.609 90.2853 276.206 87.3413 277.401 84.952C278.681 82.5627 280.388 80.5573 282.521 78.936H282.393C284.612 77.4853 286.916 76.2907 289.305 75.352C291.78 74.4133 294.126 73.944 296.345 73.944H315.801C317.934 73.944 320.196 74.4133 322.585 75.352C325.06 76.2907 327.364 77.4853 329.497 78.936H329.369C331.588 80.5573 333.294 82.6907 334.489 85.336C335.684 87.896 336.281 90.8827 336.281 94.296V145.624C336.281 149.72 333.934 151.768 329.241 151.768C328.302 151.768 327.406 151.725 326.553 151.64C325.785 151.555 325.06 151.341 324.377 151C323.78 150.573 323.268 150.019 322.841 149.336C322.5 148.568 322.329 147.587 322.329 146.392L322.201 118.36H296.345C294.468 118.36 293.017 118.573 291.993 119C290.969 119.427 290.158 120.109 289.561 121.048C288.878 122.499 288.366 123.651 288.025 124.504C287.769 125.272 287.641 126.168 287.641 127.192V132.184C287.641 134.403 288.281 136.109 289.561 137.304C290.926 138.413 293.23 138.968 296.473 138.968H310.809C313.966 138.968 315.545 140.973 315.545 144.984C315.545 146.691 315.161 148.141 314.393 149.336C313.625 150.445 312.43 151 310.809 151H294.041ZM366.918 145.624C366.918 149.72 364.571 151.768 359.878 151.768C355.185 151.768 352.838 149.72 352.838 145.624V94.168C352.838 90.6693 353.393 87.64 354.502 85.08C355.611 82.52 357.361 80.4293 359.75 78.808C364.273 75.5653 368.795 73.944 373.318 73.944H393.926C398.278 73.944 402.801 75.5653 407.494 78.808C412.102 82.0507 414.406 87.1707 414.406 94.168V145.624C414.406 149.72 412.059 151.768 407.366 151.768C402.673 151.768 400.326 149.72 400.326 145.624V95.32C400.326 93.1013 399.643 90.968 398.278 88.92L398.406 89.048C397.297 87 395.035 85.976 391.622 85.976H375.622C372.123 85.976 369.819 87 368.71 89.048C367.515 90.84 366.918 92.9307 366.918 95.32V145.624Z" fill="#FF6B00"/>
<path d="M447.347 145.624C447.347 149.72 444.83 151.768 439.795 151.768C434.76 151.768 432.243 149.72 432.243 145.624V57.048C432.243 55.0853 432.798 53.336 433.907 51.8C435.016 50.1787 437.15 49.368 440.307 49.368H483.827C486.899 49.368 488.52 51.5013 488.691 55.768C488.862 60.12 487.24 62.296 483.827 62.296H447.347V145.624ZM480.115 98.136C480.115 99.5867 479.816 100.995 479.219 102.36C478.707 103.64 477.939 104.749 476.915 105.688C475.976 106.627 474.867 107.395 473.587 107.992C472.307 108.504 470.899 108.76 469.363 108.76C466.462 108.76 463.987 107.736 461.939 105.688C459.891 103.64 458.867 101.123 458.867 98.136C458.867 95.1493 459.891 92.632 461.939 90.584C463.987 88.536 466.462 87.512 469.363 87.512C470.899 87.512 472.307 87.8107 473.587 88.408C474.867 88.92 475.976 89.688 476.915 90.712C477.939 91.6507 478.707 92.76 479.219 94.04C479.816 95.32 480.115 96.6853 480.115 98.136ZM516.055 146.008C516.055 150.019 513.708 152.024 509.015 152.024C504.236 152.024 501.847 150.019 501.847 146.008V54.232C501.847 50.2213 504.236 48.216 509.015 48.216C513.708 48.216 516.055 50.2213 516.055 54.232V146.008ZM548.177 145.624C548.177 149.72 545.83 151.768 541.137 151.768C536.358 151.768 533.969 149.72 533.969 145.624V79.576C533.969 75.48 536.358 73.432 541.137 73.432C545.83 73.432 548.177 75.48 548.177 79.576V145.624ZM550.865 57.304C550.865 60.0347 549.926 62.3387 548.049 64.216C546.172 66.0933 543.868 67.032 541.137 67.032C538.406 67.032 536.06 66.0933 534.097 64.216C532.22 62.3387 531.281 60.0347 531.281 57.304C531.281 54.488 532.22 52.1413 534.097 50.264C536.06 48.3867 538.406 47.448 541.137 47.448C543.868 47.448 546.172 48.3867 548.049 50.264C549.926 52.1413 550.865 54.488 550.865 57.304ZM597.835 111.832L619.339 142.168C619.936 143.021 620.235 143.96 620.235 144.984C620.235 146.776 618.955 148.568 616.395 150.36C614.774 151.469 613.238 152.024 611.787 152.024C610.934 152.024 610.038 151.725 609.099 151.128C608.246 150.531 607.435 149.763 606.667 148.824L589.131 124.12C587.851 125.912 586.443 127.875 584.907 130.008C583.456 132.141 581.963 134.317 580.427 136.536C578.891 138.669 577.355 140.803 575.819 142.936C574.368 145.069 573.003 147.032 571.723 148.824C570.102 150.957 568.352 152.024 566.475 152.024C564.854 152.024 563.318 151.469 561.867 150.36C560.672 149.507 559.734 148.696 559.051 147.928C558.454 147.075 558.155 146.136 558.155 145.112C558.155 144.088 558.496 143.107 559.179 142.168L580.427 111.832C577.27 107.309 573.942 102.573 570.443 97.624C566.944 92.6747 563.616 87.896 560.459 83.288C560.118 82.6907 559.776 82.0507 559.435 81.368C559.179 80.6 559.051 80.0027 559.051 79.576C559.051 77.784 560.246 76.12 562.635 74.584H562.507C563.36 74.1573 564.128 73.816 564.811 73.56C565.579 73.2187 566.304 73.048 566.987 73.048C569.291 73.048 571.296 74.2853 573.003 76.76L589.131 99.672L605.259 76.76C607.051 74.2853 609.056 73.048 611.275 73.048C612.043 73.048 612.768 73.2187 613.451 73.56C614.134 73.816 614.902 74.1573 615.755 74.584H615.627C618.102 76.12 619.339 77.784 619.339 79.576C619.339 80.6 618.827 81.8373 617.803 83.288L597.835 111.832Z" fill="white"/>
</svg>
